<mxfile host="app.diagrams.net" modified="2023-06-08T01:33:20.467Z" agent="Mozilla/5.0 (Windows NT 10.0; Win64; x64) AppleWebKit/537.36 (KHTML, like Gecko) Chrome/114.0.0.0 Safari/537.36" etag="mSGILxoDo_rFhzcytgGj" version="21.3.7" type="device">
  <diagram name="페이지-1" id="Q20y14CA6wLD8OipvzX8">
    <mxGraphModel dx="1434" dy="788" grid="1" gridSize="10" guides="1" tooltips="1" connect="1" arrows="1" fold="1" page="1" pageScale="1" pageWidth="4681" pageHeight="3300" math="0" shadow="0">
      <root>
        <mxCell id="0" />
        <mxCell id="1" parent="0" />
        <mxCell id="FO6Ss0-WTvho9U5DYuJ4-10" style="edgeStyle=orthogonalEdgeStyle;rounded=0;orthogonalLoop=1;jettySize=auto;html=1;entryX=0;entryY=0.5;entryDx=0;entryDy=0;" edge="1" parent="1" source="FO6Ss0-WTvho9U5DYuJ4-1" target="FO6Ss0-WTvho9U5DYuJ4-2">
          <mxGeometry relative="1" as="geometry" />
        </mxCell>
        <mxCell id="FO6Ss0-WTvho9U5DYuJ4-1" value="사용자" style="shape=umlActor;verticalLabelPosition=bottom;verticalAlign=top;html=1;outlineConnect=0;" vertex="1" parent="1">
          <mxGeometry x="70" y="70" width="90" height="150" as="geometry" />
        </mxCell>
        <mxCell id="FO6Ss0-WTvho9U5DYuJ4-23" style="edgeStyle=orthogonalEdgeStyle;rounded=0;orthogonalLoop=1;jettySize=auto;html=1;entryX=0;entryY=0.5;entryDx=0;entryDy=0;" edge="1" parent="1" source="FO6Ss0-WTvho9U5DYuJ4-2" target="FO6Ss0-WTvho9U5DYuJ4-11">
          <mxGeometry relative="1" as="geometry" />
        </mxCell>
        <mxCell id="FO6Ss0-WTvho9U5DYuJ4-2" value="시작화면" style="ellipse;whiteSpace=wrap;html=1;" vertex="1" parent="1">
          <mxGeometry x="250" y="60" width="150" height="80" as="geometry" />
        </mxCell>
        <mxCell id="FO6Ss0-WTvho9U5DYuJ4-4" value="최신영화" style="swimlane;fontStyle=0;childLayout=stackLayout;horizontal=1;startSize=30;horizontalStack=0;resizeParent=1;resizeParentMax=0;resizeLast=0;collapsible=1;marginBottom=0;whiteSpace=wrap;html=1;" vertex="1" parent="1">
          <mxGeometry x="240" y="170" width="170" height="180" as="geometry" />
        </mxCell>
        <mxCell id="FO6Ss0-WTvho9U5DYuJ4-5" value="영화명" style="text;strokeColor=none;fillColor=none;align=left;verticalAlign=middle;spacingLeft=4;spacingRight=4;overflow=hidden;points=[[0,0.5],[1,0.5]];portConstraint=eastwest;rotatable=0;whiteSpace=wrap;html=1;" vertex="1" parent="FO6Ss0-WTvho9U5DYuJ4-4">
          <mxGeometry y="30" width="170" height="30" as="geometry" />
        </mxCell>
        <mxCell id="FO6Ss0-WTvho9U5DYuJ4-6" value="감독" style="text;strokeColor=none;fillColor=none;align=left;verticalAlign=middle;spacingLeft=4;spacingRight=4;overflow=hidden;points=[[0,0.5],[1,0.5]];portConstraint=eastwest;rotatable=0;whiteSpace=wrap;html=1;" vertex="1" parent="FO6Ss0-WTvho9U5DYuJ4-4">
          <mxGeometry y="60" width="170" height="30" as="geometry" />
        </mxCell>
        <mxCell id="FO6Ss0-WTvho9U5DYuJ4-7" value="출연진" style="text;strokeColor=none;fillColor=none;align=left;verticalAlign=middle;spacingLeft=4;spacingRight=4;overflow=hidden;points=[[0,0.5],[1,0.5]];portConstraint=eastwest;rotatable=0;whiteSpace=wrap;html=1;" vertex="1" parent="FO6Ss0-WTvho9U5DYuJ4-4">
          <mxGeometry y="90" width="170" height="30" as="geometry" />
        </mxCell>
        <mxCell id="FO6Ss0-WTvho9U5DYuJ4-8" value="개봉일자" style="text;strokeColor=none;fillColor=none;align=left;verticalAlign=middle;spacingLeft=4;spacingRight=4;overflow=hidden;points=[[0,0.5],[1,0.5]];portConstraint=eastwest;rotatable=0;whiteSpace=wrap;html=1;" vertex="1" parent="FO6Ss0-WTvho9U5DYuJ4-4">
          <mxGeometry y="120" width="170" height="30" as="geometry" />
        </mxCell>
        <mxCell id="FO6Ss0-WTvho9U5DYuJ4-9" value="영화설명" style="text;strokeColor=none;fillColor=none;align=left;verticalAlign=middle;spacingLeft=4;spacingRight=4;overflow=hidden;points=[[0,0.5],[1,0.5]];portConstraint=eastwest;rotatable=0;whiteSpace=wrap;html=1;" vertex="1" parent="FO6Ss0-WTvho9U5DYuJ4-4">
          <mxGeometry y="150" width="170" height="30" as="geometry" />
        </mxCell>
        <mxCell id="FO6Ss0-WTvho9U5DYuJ4-25" style="edgeStyle=orthogonalEdgeStyle;rounded=0;orthogonalLoop=1;jettySize=auto;html=1;entryX=0;entryY=0.5;entryDx=0;entryDy=0;" edge="1" parent="1" source="FO6Ss0-WTvho9U5DYuJ4-11" target="FO6Ss0-WTvho9U5DYuJ4-24">
          <mxGeometry relative="1" as="geometry" />
        </mxCell>
        <mxCell id="FO6Ss0-WTvho9U5DYuJ4-11" value="영화검색" style="ellipse;whiteSpace=wrap;html=1;" vertex="1" parent="1">
          <mxGeometry x="470" y="60" width="150" height="80" as="geometry" />
        </mxCell>
        <mxCell id="FO6Ss0-WTvho9U5DYuJ4-17" value="영화검색" style="swimlane;fontStyle=0;childLayout=stackLayout;horizontal=1;startSize=30;horizontalStack=0;resizeParent=1;resizeParentMax=0;resizeLast=0;collapsible=1;marginBottom=0;whiteSpace=wrap;html=1;" vertex="1" parent="1">
          <mxGeometry x="460" y="170" width="170" height="180" as="geometry">
            <mxRectangle x="460" y="170" width="90" height="30" as="alternateBounds" />
          </mxGeometry>
        </mxCell>
        <mxCell id="FO6Ss0-WTvho9U5DYuJ4-18" value="제목으로 검색하기" style="text;strokeColor=none;fillColor=none;align=left;verticalAlign=middle;spacingLeft=4;spacingRight=4;overflow=hidden;points=[[0,0.5],[1,0.5]];portConstraint=eastwest;rotatable=0;whiteSpace=wrap;html=1;" vertex="1" parent="FO6Ss0-WTvho9U5DYuJ4-17">
          <mxGeometry y="30" width="170" height="30" as="geometry" />
        </mxCell>
        <mxCell id="FO6Ss0-WTvho9U5DYuJ4-19" value="장르로 검색하기" style="text;strokeColor=none;fillColor=none;align=left;verticalAlign=middle;spacingLeft=4;spacingRight=4;overflow=hidden;points=[[0,0.5],[1,0.5]];portConstraint=eastwest;rotatable=0;whiteSpace=wrap;html=1;" vertex="1" parent="FO6Ss0-WTvho9U5DYuJ4-17">
          <mxGeometry y="60" width="170" height="30" as="geometry" />
        </mxCell>
        <mxCell id="FO6Ss0-WTvho9U5DYuJ4-20" value="감독으로 검색하기" style="text;strokeColor=none;fillColor=none;align=left;verticalAlign=middle;spacingLeft=4;spacingRight=4;overflow=hidden;points=[[0,0.5],[1,0.5]];portConstraint=eastwest;rotatable=0;whiteSpace=wrap;html=1;" vertex="1" parent="FO6Ss0-WTvho9U5DYuJ4-17">
          <mxGeometry y="90" width="170" height="30" as="geometry" />
        </mxCell>
        <mxCell id="FO6Ss0-WTvho9U5DYuJ4-21" value="주연으로 검색하기" style="text;strokeColor=none;fillColor=none;align=left;verticalAlign=middle;spacingLeft=4;spacingRight=4;overflow=hidden;points=[[0,0.5],[1,0.5]];portConstraint=eastwest;rotatable=0;whiteSpace=wrap;html=1;" vertex="1" parent="FO6Ss0-WTvho9U5DYuJ4-17">
          <mxGeometry y="120" width="170" height="30" as="geometry" />
        </mxCell>
        <mxCell id="FO6Ss0-WTvho9U5DYuJ4-22" value="내용(키워드)로 검색하기" style="text;strokeColor=none;fillColor=none;align=left;verticalAlign=middle;spacingLeft=4;spacingRight=4;overflow=hidden;points=[[0,0.5],[1,0.5]];portConstraint=eastwest;rotatable=0;whiteSpace=wrap;html=1;" vertex="1" parent="FO6Ss0-WTvho9U5DYuJ4-17">
          <mxGeometry y="150" width="170" height="30" as="geometry" />
        </mxCell>
        <mxCell id="FO6Ss0-WTvho9U5DYuJ4-30" style="edgeStyle=orthogonalEdgeStyle;rounded=0;orthogonalLoop=1;jettySize=auto;html=1;entryX=0;entryY=0.5;entryDx=0;entryDy=0;" edge="1" parent="1" source="FO6Ss0-WTvho9U5DYuJ4-24" target="FO6Ss0-WTvho9U5DYuJ4-26">
          <mxGeometry relative="1" as="geometry" />
        </mxCell>
        <mxCell id="FO6Ss0-WTvho9U5DYuJ4-31" style="edgeStyle=orthogonalEdgeStyle;rounded=0;orthogonalLoop=1;jettySize=auto;html=1;entryX=0;entryY=0.5;entryDx=0;entryDy=0;" edge="1" parent="1" source="FO6Ss0-WTvho9U5DYuJ4-24" target="FO6Ss0-WTvho9U5DYuJ4-27">
          <mxGeometry relative="1" as="geometry" />
        </mxCell>
        <mxCell id="FO6Ss0-WTvho9U5DYuJ4-32" style="edgeStyle=orthogonalEdgeStyle;rounded=0;orthogonalLoop=1;jettySize=auto;html=1;entryX=0;entryY=0.5;entryDx=0;entryDy=0;" edge="1" parent="1" source="FO6Ss0-WTvho9U5DYuJ4-24" target="FO6Ss0-WTvho9U5DYuJ4-28">
          <mxGeometry relative="1" as="geometry">
            <Array as="points">
              <mxPoint x="850" y="100" />
              <mxPoint x="850" y="220" />
            </Array>
          </mxGeometry>
        </mxCell>
        <mxCell id="FO6Ss0-WTvho9U5DYuJ4-33" style="edgeStyle=orthogonalEdgeStyle;rounded=0;orthogonalLoop=1;jettySize=auto;html=1;entryX=0;entryY=0.5;entryDx=0;entryDy=0;" edge="1" parent="1" source="FO6Ss0-WTvho9U5DYuJ4-24" target="FO6Ss0-WTvho9U5DYuJ4-29">
          <mxGeometry relative="1" as="geometry">
            <Array as="points">
              <mxPoint x="850" y="100" />
              <mxPoint x="850" y="310" />
            </Array>
          </mxGeometry>
        </mxCell>
        <mxCell id="FO6Ss0-WTvho9U5DYuJ4-24" value="자세히보기" style="ellipse;whiteSpace=wrap;html=1;" vertex="1" parent="1">
          <mxGeometry x="680" y="60" width="150" height="80" as="geometry" />
        </mxCell>
        <mxCell id="FO6Ss0-WTvho9U5DYuJ4-45" style="edgeStyle=orthogonalEdgeStyle;rounded=0;orthogonalLoop=1;jettySize=auto;html=1;entryX=0;entryY=0.5;entryDx=0;entryDy=0;entryPerimeter=0;" edge="1" parent="1" source="FO6Ss0-WTvho9U5DYuJ4-26" target="FO6Ss0-WTvho9U5DYuJ4-44">
          <mxGeometry relative="1" as="geometry" />
        </mxCell>
        <mxCell id="FO6Ss0-WTvho9U5DYuJ4-26" value="영화평 남기기" style="ellipse;whiteSpace=wrap;html=1;" vertex="1" parent="1">
          <mxGeometry x="860" width="150" height="80" as="geometry" />
        </mxCell>
        <mxCell id="FO6Ss0-WTvho9U5DYuJ4-35" style="edgeStyle=orthogonalEdgeStyle;rounded=0;orthogonalLoop=1;jettySize=auto;html=1;entryX=0;entryY=0.5;entryDx=0;entryDy=0;" edge="1" parent="1" source="FO6Ss0-WTvho9U5DYuJ4-27" target="FO6Ss0-WTvho9U5DYuJ4-34">
          <mxGeometry relative="1" as="geometry" />
        </mxCell>
        <mxCell id="FO6Ss0-WTvho9U5DYuJ4-27" value="영화 예매하기" style="ellipse;whiteSpace=wrap;html=1;" vertex="1" parent="1">
          <mxGeometry x="860" y="90" width="150" height="80" as="geometry" />
        </mxCell>
        <mxCell id="FO6Ss0-WTvho9U5DYuJ4-37" style="edgeStyle=orthogonalEdgeStyle;rounded=0;orthogonalLoop=1;jettySize=auto;html=1;entryX=0;entryY=0.5;entryDx=0;entryDy=0;" edge="1" parent="1" source="FO6Ss0-WTvho9U5DYuJ4-28" target="FO6Ss0-WTvho9U5DYuJ4-36">
          <mxGeometry relative="1" as="geometry" />
        </mxCell>
        <mxCell id="FO6Ss0-WTvho9U5DYuJ4-28" value="OTT 링크 바로가기" style="ellipse;whiteSpace=wrap;html=1;" vertex="1" parent="1">
          <mxGeometry x="860" y="180" width="150" height="80" as="geometry" />
        </mxCell>
        <mxCell id="FO6Ss0-WTvho9U5DYuJ4-29" value="공유하기" style="ellipse;whiteSpace=wrap;html=1;" vertex="1" parent="1">
          <mxGeometry x="860" y="270" width="150" height="80" as="geometry" />
        </mxCell>
        <mxCell id="FO6Ss0-WTvho9U5DYuJ4-34" value="제휴 영화관 링크" style="ellipse;whiteSpace=wrap;html=1;" vertex="1" parent="1">
          <mxGeometry x="1040" y="90" width="150" height="80" as="geometry" />
        </mxCell>
        <mxCell id="FO6Ss0-WTvho9U5DYuJ4-36" value="OTT 연결" style="ellipse;whiteSpace=wrap;html=1;" vertex="1" parent="1">
          <mxGeometry x="1040" y="180" width="150" height="80" as="geometry" />
        </mxCell>
        <mxCell id="FO6Ss0-WTvho9U5DYuJ4-38" value="공유하기" style="swimlane;fontStyle=0;childLayout=stackLayout;horizontal=1;startSize=30;horizontalStack=0;resizeParent=1;resizeParentMax=0;resizeLast=0;collapsible=1;marginBottom=0;whiteSpace=wrap;html=1;" vertex="1" parent="1">
          <mxGeometry x="850" y="370" width="170" height="120" as="geometry">
            <mxRectangle x="460" y="170" width="90" height="30" as="alternateBounds" />
          </mxGeometry>
        </mxCell>
        <mxCell id="FO6Ss0-WTvho9U5DYuJ4-39" value="SNS 링크 보내기" style="text;strokeColor=none;fillColor=none;align=left;verticalAlign=middle;spacingLeft=4;spacingRight=4;overflow=hidden;points=[[0,0.5],[1,0.5]];portConstraint=eastwest;rotatable=0;whiteSpace=wrap;html=1;" vertex="1" parent="FO6Ss0-WTvho9U5DYuJ4-38">
          <mxGeometry y="30" width="170" height="30" as="geometry" />
        </mxCell>
        <mxCell id="FO6Ss0-WTvho9U5DYuJ4-40" value="카카오 링크 보내기" style="text;strokeColor=none;fillColor=none;align=left;verticalAlign=middle;spacingLeft=4;spacingRight=4;overflow=hidden;points=[[0,0.5],[1,0.5]];portConstraint=eastwest;rotatable=0;whiteSpace=wrap;html=1;" vertex="1" parent="FO6Ss0-WTvho9U5DYuJ4-38">
          <mxGeometry y="60" width="170" height="30" as="geometry" />
        </mxCell>
        <mxCell id="FO6Ss0-WTvho9U5DYuJ4-41" value="페이스북에 공유하기" style="text;strokeColor=none;fillColor=none;align=left;verticalAlign=middle;spacingLeft=4;spacingRight=4;overflow=hidden;points=[[0,0.5],[1,0.5]];portConstraint=eastwest;rotatable=0;whiteSpace=wrap;html=1;" vertex="1" parent="FO6Ss0-WTvho9U5DYuJ4-38">
          <mxGeometry y="90" width="170" height="30" as="geometry" />
        </mxCell>
        <mxCell id="FO6Ss0-WTvho9U5DYuJ4-44" value="" style="shape=cylinder3;whiteSpace=wrap;html=1;boundedLbl=1;backgroundOutline=1;size=15;" vertex="1" parent="1">
          <mxGeometry x="1085" width="60" height="80" as="geometry" />
        </mxCell>
      </root>
    </mxGraphModel>
  </diagram>
</mxfile>
